<?xml version="1.0" ?><!DOCTYPE svg  PUBLIC '-//W3C//DTD SVG 1.1//EN'  'http://www.w3.org/Graphics/SVG/1.1/DTD/svg11.dtd'><svg enable-background="new -208.5 20.5 100 100" id="Layer_1" version="1.1" viewBox="-208.5 20.5 100 100" xml:space="preserve" xmlns="http://www.w3.org/2000/svg" xmlns:sketch="http://www.bohemiancoding.com/sketch/ns" xmlns:xlink="http://www.w3.org/1999/xlink"><g><circle cx="-158.5" cy="70.5" fill="#F5EEE5" r="50"/><g><defs><circle cx="-158.5" cy="70.5" id="SVGID_1_" r="50"/></defs><clipPath id="SVGID_2_"><use overflow="visible" xlink:href="#SVGID_1_"/></clipPath><path clip-path="url(#SVGID_2_)" d="M-143.5,96.4l27.9,7.7c3.2,1.1,5.7,3.5,7.1,6.6v9.8h-100v-9.8     c1.3-3.1,3.9-5.5,7.1-6.6l27.9-7.7V81.5h30V96.4z" fill="#D4B08C"/><g clip-path="url(#SVGID_2_)"><defs><path d="M-143.5,96.4l27.9,7.7c3.2,1.1,5.7,3.5,7.1,6.6v9.8h-100v-9.8c1.3-3.1,3.9-5.5,7.1-6.6l27.9-7.7V81.5h30       V96.4z" id="SVGID_3_"/></defs><clipPath id="SVGID_4_"><use overflow="visible" xlink:href="#SVGID_3_"/></clipPath><path clip-path="url(#SVGID_4_)" d="M-158.3,100.5h-7.2l-8-4.1l-35-0.9v25h50.2h50.2v-25h-38.2l-4.8,5H-158.3z" fill="#1E1F24"/></g></g><path d="M-158.5,94.5c-1.5,0-3.5-0.3-4.8-0.9c-1.6-0.7-7.2-4.6-9.1-6.3c-2.5-2.3-3.8-5.1-4.2-10    s-1.9-22.4-1.9-26.4c0-5.7,5.1-14.5,19.9-14.5c0,0,0,0,0,0c0,0,0,0,0,0c0,0,0,0,0,0c0,0,0,0,0,0c14.8,0,19.9,8.8,19.9,14.5    c0,4-1.5,21.5-1.9,26.4s-1.6,7.7-4.2,10c-1.9,1.7-7.6,5.6-9.1,6.3C-155,94.2-157,94.5-158.5,94.5L-158.5,94.5z" fill="#F2CEA5"/><g><defs><path d="M-158.5,94.5c-1.5,0-3.5-0.3-4.8-0.9c-1.6-0.7-7.2-4.6-9.1-6.3c-2.5-2.3-3.8-5.1-4.2-10      s-1.9-22.4-1.9-26.4c0-5.7,5.1-14.5,19.9-14.5c0,0,0,0,0,0c0,0,0,0,0,0c0,0,0,0,0,0c0,0,0,0,0,0c14.8,0,19.9,8.8,19.9,14.5      c0,4-1.5,21.5-1.9,26.4s-1.6,7.7-4.2,10c-1.9,1.7-7.6,5.6-9.1,6.3C-155,94.2-157,94.5-158.5,94.5L-158.5,94.5z" id="SVGID_5_"/></defs><clipPath id="SVGID_6_"><use overflow="visible" xlink:href="#SVGID_5_"/></clipPath><path clip-path="url(#SVGID_6_)" d="M-147.5,81.5c-1-1.2-3-2.9-6.3-3s-2.5,1.9-4.7,2c0,0-0.1,0-0.1,0     c0,0,0,0-0.1,0c-2.1-0.1-1.3-2-4.7-2s-5.4,1.7-6.3,3l-8-11v27h19.1h19.1v-27L-147.5,81.5z M-154.5,88.5c-1.1-0.1-1.7-0.4-2-0.8     c0-0.6-0.4-1.3-2.1-1.2c-1.7-0.1-2,0.6-2.1,1.2c-0.3,0.4-0.9,0.8-2,0.8c-3.8-0.2-5-2.7-5-4.5s1.5-2.5,5-2.5c2.5,0,1.7,0.9,4,1     c0,0,0.1,0,0.1,0c0,0,0,0,0.1,0c2.3,0,1.5-1,4-1c3.5,0,5,0.7,5,2.5S-150.7,88.3-154.5,88.5z" fill="#2D2E35"/></g><path d="M-155.5,85.5h-6c-0.6,0-1-0.4-1-1s0.4-1,1-1h6c0.6,0,1,0.4,1,1S-154.9,85.5-155.5,85.5z" fill="#A3705F"/><path d="M-149.5,67.5c1.1,0,2-0.9,2-2s-0.9-2-2-2s-2,0.9-2,2S-150.6,67.5-149.5,67.5z M-167.5,67.5    c1.1,0,2-0.9,2-2s-0.9-2-2-2s-2,0.9-2,2S-168.6,67.5-167.5,67.5z" fill="#262626"/><path d="M-161.9,64c-0.5-0.8-1.9-2.5-5.5-2.5c-4.1,0-5.1,2.3-5.1,2.4l-1.9-0.7c0.1-0.1,1.4-3.6,7-3.6    c4.6,0,6.6,2.4,7.2,3.5L-161.9,64z" fill="#CC9872"/><path d="M-157.5,74.5c0-0.3,0-7.1,0-9c0-2.5,2.5-5.9,8-6c5.5,0,6.9,3.5,7,3.6l-1.9,0.7c0-0.1-1-2.3-5.1-2.4    c-4.1,0-6,2.4-6,4c0,1.9,0,8.9,0,9L-157.5,74.5z" fill="#BB8660"/><path d="M-173.4,94.9l1.7-2.8l12.9,5.9l13.1-4.9l2.2,2.2v6.5c0,0-10.8,10.6-15,10.7c-4.2,0-14.9-11.5-14.9-11.5    V94.9z" fill="#D4B08C"/><g><defs><circle cx="-158.5" cy="70.5" id="SVGID_7_" r="50"/></defs><clipPath id="SVGID_8_"><use overflow="visible" xlink:href="#SVGID_7_"/></clipPath><path clip-path="url(#SVGID_8_)" d="M-143.5,96.4c0,2.3,0,3.2,0,5.1c0,14.1-8.5,19.7-8.5,19.7l-1.8,0     c0,0-4.4,0-4.4,0l-4.3,0l-1.8,0c0,0-9.2-6.7-9.2-18.7c0-2,0-5.2,0-6.1c1,1,2.6,9.1,15.3,9.1S-144.5,97.4-143.5,96.4z" fill="#6B363E"/></g><rect fill="#E1BC90" height="2" width="17.9" x="-167.4" y="50.5"/><rect fill="#E1BC90" height="2" width="9.9" x="-163.4" y="54.5"/><path d="M-139.4,65.5c0,0,0.1-13.1-5.5-20.3c-1.3,1.2-3.5,2.2-6.5,2.2s-5.9-1.1-9.3-2.8s-5.3-3.1-8.3-3.4    c-2,0.7-8.5,5.9-8.5,14.9s0.2,12.3,0.2,12.3s-4.2-5.7-4.2-14.3s4.8-14.8,10.7-15c2.4-2.2,7-3.8,11.9-3.8s14.5,2.4,18.5,9.2    C-134.5,54.4-139.4,65.5-139.4,65.5z" fill="#2D2E35"/></g></svg>