<?xml version="1.0" ?><!DOCTYPE svg  PUBLIC '-//W3C//DTD SVG 1.1//EN'  'http://www.w3.org/Graphics/SVG/1.1/DTD/svg11.dtd'><svg enable-background="new -27 24 100 100" height="100px" id="supportfemale" version="1.1" viewBox="-27 24 100 100" width="100px" xml:space="preserve" xmlns="http://www.w3.org/2000/svg" xmlns:sketch="http://www.bohemiancoding.com/sketch/ns" xmlns:xlink="http://www.w3.org/1999/xlink"><g><g><circle cx="23" cy="74" fill="#F5EEE5" r="50"/><g><defs><circle cx="23" cy="74" id="SVGID_1_" r="50"/></defs><clipPath id="SVGID_2_"><use overflow="visible" xlink:href="#SVGID_1_"/></clipPath><rect clip-path="url(#SVGID_2_)" fill="#452228" height="43" width="31" x="-3" y="65"/><rect clip-path="url(#SVGID_2_)" fill="#452228" height="47" width="31" x="18" y="61"/><path clip-path="url(#SVGID_2_)" d="M36,95.9c0,4,4.7,5.2,7.1,5.8c7.6,2,22.8,5.9,22.8,5.9      c3.2,1.1,5.7,3.5,7.1,6.6v9.8H-27v-9.8c1.3-3.1,3.9-5.5,7.1-6.6c0,0,15.2-3.9,22.8-5.9c2.4-0.6,7.1-1.8,7.1-5.8      c0-4,0-10.9,0-10.9h26C36,85,36,91.9,36,95.9z" fill="#E6C19C"/><g clip-path="url(#SVGID_2_)"><defs><path d="M36,95.9c0,4,4.7,5.2,7.1,5.8c7.6,2,22.8,5.9,22.8,5.9c3.2,1.1,5.7,3.5,7.1,6.6v9.8H-27v-9.8        c1.3-3.1,3.9-5.5,7.1-6.6c0,0,15.2-3.9,22.8-5.9c2.4-0.6,7.1-1.8,7.1-5.8c0-4,0-10.9,0-10.9h26C36,85,36,91.9,36,95.9z" id="SVGID_3_"/></defs><clipPath id="SVGID_4_"><use overflow="visible" xlink:href="#SVGID_3_"/></clipPath><path clip-path="url(#SVGID_4_)" d="M23.2,35l0.2,0l0,0c3.3,0,8.2,0.2,11.4,2c3.3,1.9,7.3,5.6,8.5,12.1       c2.4,13.7-2.1,35.4-6.3,42.4c-4,6.7-9.8,9.2-13.5,9.4l-0.1,0l-0.2,0l-0.2,0l-0.1,0c-3.7-0.2-9.5-2.7-13.5-9.4       c-4.2-7-8.7-28.7-6.3-42.4c1.2-6.5,5.2-10.2,8.5-12.1c3.2-1.8,8.1-2,11.4-2l0,0L23.2,35z" fill="#D4B08C"/><path clip-path="url(#SVGID_4_)" d="M-27,82H73v42H-27V82z M23,116c13.5-0.2,21-15,21-15S34,84,23,84       S2,101,2,101S9.5,116.2,23,116z" fill="#D94CAA"/><path clip-path="url(#SVGID_4_)" d="M23,79C9.9,79-1.9,99.2-1.9,99.2s8.9,18,24.9,17.8s24.9-17.8,24.9-17.8       S36.1,79,23,79z M23,113C10.9,113,2.2,98.9,2.2,98.9S12,83,23,83s20.8,15.9,20.8,15.9S35.1,113,23,113z" fill="#B33E82"/></g></g><path d="M22.8,40c19.1,0,20.7,13.8,20.8,15.1c0.6,6.4-0.3,15.3-1.9,21.8c-1.3,5.7-3.2,9.3-5,11.9     c-4,5.9-9.8,8.1-13.5,8.3c-0.2,0-0.2,0-0.3,0l-0.2,0c-3.8-0.2-9.6-2.4-13.6-8.3c-1.7-2.4-3.4-4.8-4.7-10     c-1.7-6.8-2.8-17-2.1-23.8C2.5,53.7,3.7,40,22.8,40z" fill="#F2CEA5"/><path d="M18.8,85c-0.2,0-0.4,0.4-0.3,0.7c0.9,2.1,2.3,3.3,4.2,3.4c2,0.2,4.1-1.2,5.2-3.4c0.1-0.3,0-0.7-0.3-0.7     L18.8,85z" fill="#A3705F"/><circle cx="32" cy="69" fill="#262626" r="2"/><circle cx="14" cy="69" fill="#262626" r="2"/><path d="M8.5,64.2c0,0,1.4-1.2,4.9-1.2c2.5,0,4.9,0.7,6.4,2.6" fill="none" stroke="#CC9872" stroke-width="2"/><path d="M37.4,64.2c0,0-1.4-1.2-4.9-1.2s-6.9,1.5-7.7,5.7s0.3,7.7,2.1,10.1" fill="none" stroke="#BB8660" stroke-width="2"/><path d="M1.8,65.9c2.1-1.8,4.8-4.3,7.3-8.6c6.8-12,17.2-6.5,20.5-2.6c0.4,0.4,0.9,0.2,0.9,0.2s8.1-3.7,11.5,3.8     c0.8,1.8,1,6.9,1,6.9s4.2,0.7,5.9,1.9v-7.9C49,44.2,39.5,44,39.1,44s-0.7,0-0.9-0.6C37.3,40.5,28,30.9,12.4,37S-3,65-3,65v4.2     C-1.8,68.8-0.3,67.7,1.8,65.9z" fill="#6B363E"/><g><defs><path d="M1.8,65.9c2.1-1.8,4.8-4.3,7.3-8.6c6.8-12,17.2-6.5,20.5-2.6c0.4,0.4,0.9,0.2,0.9,0.2s8.1-3.7,11.5,3.8       c0.8,1.8,1,6.9,1,6.9s4.2,0.7,5.9,1.9v-7.9C49,44.2,39.5,44,39.1,44s-0.7,0-0.9-0.6C37.3,40.5,28,30.9,12.4,37S-3,65-3,65v4.2       C-1.8,68.8-0.3,67.7,1.8,65.9z" id="SVGID_5_"/></defs><clipPath id="SVGID_6_"><use overflow="visible" xlink:href="#SVGID_5_"/></clipPath><path clip-path="url(#SVGID_6_)" d="M29.8,55.6c0,0,3-7.5,9-12.1S50,50.9,50,50.9l0.3,19.6L29.8,55.6z" fill="#452228"/></g><path d="M47,64c0-12.7-11.3-23-24-23C10.3,41-1,51.3-1,64v8h2v-8C0.9,53,11.9,43.9,23,44c11.1-0.1,22.1,9,22,20v9     h2V64z" fill="#C1CFD9"/><path d="M44,79.2C43.9,92.3,31,93,31,93" fill="none" stroke="#C1CFD9" stroke-width="2"/><path d="M29.3,90.9l5.8-1.6c1.1-0.3,2.2,0.3,2.4,1.4l0.5,1.9c0.3,1.1-0.3,2.2-1.4,2.4l-5.8,1.6     c-1.1,0.3-2.2-0.3-2.4-1.4l-0.5-1.9C27.6,92.3,28.3,91.2,29.3,90.9z" fill="#40424C"/><path d="M6.6,84.5c-5.1,0.5-9.7-3-10.7-8.1S-2,66.5,2.8,65L6.6,84.5z" fill="#4B4D59"/><g><defs><path d="M6.6,84.5c-5.1,0.5-9.7-3-10.7-8.1S-2,66.5,2.8,65L6.6,84.5z" id="SVGID_7_"/></defs><clipPath id="SVGID_8_"><use overflow="visible" xlink:href="#SVGID_7_"/></clipPath><rect clip-path="url(#SVGID_8_)" fill="#9099A6" height="20" transform="matrix(0.9816 -0.1908 0.1908 0.9816 -14.5065 1.1759)" width="8" x="-5.1" y="65.9"/></g><path d="M39.2,84.5c5.1,0.5,9.7-3,10.7-8.1c1-5.1-2.1-10-6.9-11.5L39.2,84.5z" fill="#4B4D59"/><g><defs><path d="M39.2,84.5c5.1,0.5,9.7-3,10.7-8.1c1-5.1-2.1-10-6.9-11.5L39.2,84.5z" id="SVGID_9_"/></defs><clipPath id="SVGID_10_"><use overflow="visible" xlink:href="#SVGID_9_"/></clipPath><rect clip-path="url(#SVGID_10_)" fill="#9099A6" height="20" transform="matrix(-0.9816 -0.1908 0.1908 -0.9816 78.5965 159.3994)" width="8" x="43" y="65.9"/></g></g></g></svg>